HIERARCHY
ROOT Hips
{
  OFFSET 5.70366 102.999 -1.77653
  CHANNELS 6 Xposition Yposition Zposition Zrotation Xrotation Yrotation
  JOINT RightUpLeg
  {
    OFFSET -8.9458 -8.66707 0.101652
    CHANNELS 3 Zrotation Xrotation Yrotation
    JOINT RightLeg
    {
      OFFSET 0 -44.4227 1.3727
      CHANNELS 3 Zrotation Xrotation Yrotation
      JOINT RightFoot
      {
        OFFSET 0.253549 -42.0924 -1.46059
        CHANNELS 3 Zrotation Xrotation Yrotation
        JOINT RightToes
        {
          OFFSET 0.04 -4.41509 8.4991
          CHANNELS 3 Zrotation Xrotation Yrotation
          End Site
          {
            OFFSET -0.08 -0.137448 9.77979
          }
        }
      }
    }
  }
  JOINT Spine
  {
    OFFSET 0 11.8905 0
    CHANNELS 3 Zrotation Xrotation Yrotation
    JOINT Spine1
    {
      OFFSET 0 25.6574 0.127663
      CHANNELS 3 Zrotation Xrotation Yrotation
      JOINT HEad
      {
        OFFSET 0 8.73416 0.011341
        CHANNELS 3 Zrotation Xrotation Yrotation
        End Site
        {
          OFFSET -0.29 12.7742 2.51395
        }
      }
      JOINT LeftShoulder1
      {
        OFFSET 8.99 -0.362252 -0.22
        CHANNELS 3 Zrotation Xrotation Yrotation
        JOINT LeftArm
        {
          OFFSET 10.2827 -0.00337999 0.322123
          CHANNELS 3 Zrotation Xrotation Yrotation
          JOINT LeftForeArm
          {
            OFFSET 26.2597 0.099144 -1.42434
            CHANNELS 3 Zrotation Xrotation Yrotation
            JOINT LeftHand
            {
              OFFSET 22.0902 0.085362 1.02216
              CHANNELS 3 Zrotation Xrotation Yrotation
              End Site
              {
                OFFSET 13.419 -0.6 1.50291
              }
            }
          }
        }
      }
      JOINT RightShoulder
      {
        OFFSET -8.99 -0.362252 -0.22
        CHANNELS 3 Zrotation Xrotation Yrotation
        JOINT RightArm
        {
          OFFSET -10.2827 -0.00338 0.322123
          CHANNELS 3 Zrotation Xrotation Yrotation
          JOINT RightForeArm
          {
            OFFSET -26.364 0.099144 -1.42434
            CHANNELS 3 Zrotation Xrotation Yrotation
            JOINT RightHand
            {
              OFFSET -22.0324 0.085362 1.02216
              CHANNELS 3 Zrotation Xrotation Yrotation
              End Site
              {
                OFFSET -13.3284 -0.6 1.50291
              }
            }
          }
        }
      }
    }
  }
  JOINT LeftUpLeg
  {
    OFFSET 8.9458 -8.66707 0.101652
    CHANNELS 3 Zrotation Xrotation Yrotation
    JOINT LeftLeg
    {
      OFFSET 0 -44.4227 1.3727
      CHANNELS 3 Zrotation Xrotation Yrotation
      JOINT LeftFoot
      {
        OFFSET -0.253549 -42.0924 -1.46059
        CHANNELS 3 Zrotation Xrotation Yrotation
        JOINT LeftToes
        {
          OFFSET -0.04 -4.41509 8.4991
          CHANNELS 3 Zrotation Xrotation Yrotation
          End Site
          {
            OFFSET 0.08 -0.047448 9.77979
          }
        }
      }
    }
  }
}
MOTION
Frames:	10
Frame Time:	0.0416667
-0.871034 97.2841 -98.8177 3.19622 10.7042 73.6352 1.44017 -31.5422 -0.564342 -1.13482 66.9143 -2.96682 -14.8816 -0.446181 0.828796 0.0462048 0.000530889 0.662642 -11.3322 12.8101 1.06382 1.94053 -5.19252 -0.117122 14.3821 9.00985 -6.41981 -20.6713 -1.03721 7.51847 -42.4002 -4.16954 -17.8998 -6.24919 17.5802 -35.6957 1.04796 9.84996 -59.3225 39.4129 0.89954 -2.20706 33.2893 -12.4858 -1.87761 1.59726 31.7714 16.3091 1.5804 10.12 5.18523 -3.78273 -14.5281 1.49904 0.790198 31.3466 7.8859 -11.3853 -11.6954 -0.354878 -1.3242e-009 8.75237e-006 -1.47526e-008 
5.39159 97.3102 -97.2761 3.57841 10.7239 73.1745 1.25096 -34.2369 -2.73622 -0.88182 53.0233 -6.12885 -14.2227 -2.04373 0.568141 0.0462048 0.000530889 0.662642 -13.4249 13.3181 -0.381471 4.10942 -6.10138 -1.77254 15.3258 9.07777 -5.47851 -18.333 -0.555606 5.93434 -44.0443 -8.98935 -27.8753 -5.26367 19.0948 -38.1559 0.835473 9.98356 -59.9098 39.4515 0.953062 -2.0916 30.3801 -22.7102 -3.15929 3.70424 43.6893 7.64196 2.8271 10.151 2.67457 -4.22849 -8.86956 1.86611 0.96965 29.3994 8.27085 -11.3904 -14.6227 -0.631574 -1.3242e-009 8.75237e-006 -1.47526e-008 
11.6336 97.1796 -95.3419 3.44341 10.3199 72.7566 2.30765 -33.3829 -5.06463 -1.03992 32.1858 -9.38201 -13.5808 -2.87411 0.430203 0.0462048 0.000530889 0.662642 -14.3517 13.1999 -1.46237 5.7984 -6.21864 -2.93843 16.4076 8.62572 -5.93588 -14.8701 -0.0309605 3.8638 -46.4669 -12.5263 -35.6813 -3.63856 21.1088 -41.9018 1.72033 9.41527 -60.8101 38.8829 1.08522 -1.77878 27.7993 -22.2886 -7.17876 3.86176 42.375 6.81962 3.10974 10.1478 2.04937 -3.84187 -3.13973 2.52831 1.21103 26.6031 7.86641 -10.7985 -16.0049 -0.720054 -1.3242e-009 8.75237e-006 -1.47526e-008 
18.2776 96.4348 -92.9688 3.62398 10.5715 72.011 2.45912 -29.3819 0.849375 1.44561 10.4965 -18.6296 -9.77313 -4.20967 0.14806 0.0462048 0.000530889 0.662642 -15.8133 12.1503 -2.19806 7.06945 -5.81797 -3.74574 16.7022 7.87835 -7.3035 -12.1349 0.246451 2.47314 -49.2063 -14.5323 -39.9319 -3.41301 21.5408 -45.3282 2.22653 9.07339 -61.9863 38.0764 1.10106 -1.70648 26.1693 -21.1376 -11.3253 3.33605 37.9281 8.91101 3.34992 10.1996 3.01615 -3.82266 1.40204 2.50876 1.35512 27.0412 6.89605 -14.0216 -17.763 -1.17774 -1.3242e-009 8.75237e-006 -1.47526e-008 
25.1821 95.2878 -90.2262 4.64961 10.9645 70.4616 2.51705 -26.7656 3.08795 1.2692 3.22571 -20.8614 -6.90707 -5.1669 -0.0101823 0.0462048 0.000530889 0.662642 -16.5179 11.119 -2.82805 7.49392 -5.77375 -4.34224 15.6807 8.40571 -9.07675 -11.9493 0.224332 2.57232 -51.2286 -14.7095 -39.4824 -5.27315 20.1002 -45.9431 0.849288 9.97704 -62.6511 37.2204 0.966944 -1.9724 26.5638 -19.0514 -13.0219 2.96324 34.9467 11.6179 3.77862 10.2599 3.72133 -2.24993 4.08537 6.18798 0.328022 32.965 1.80475 -18.7952 -16.7405 -1.42582 -1.3242e-009 8.75237e-006 -1.47526e-008 
31.4527 94.3218 -87.4057 5.59735 9.49539 67.1299 5.78318 -26.0608 3.55405 2.19182 8.83033 -21.3574 -16.4474 -1.30243 0.851394 0.0462048 0.000530889 0.662642 -13.8578 11.1296 -2.62504 6.75996 -5.17589 -4.27282 13.9689 9.64172 -10.4482 -13.8737 0.0391572 3.54378 -51.7251 -12.9275 -34.728 -6.88066 18.405 -43.3632 -0.987231 11.1777 -61.9762 36.753 0.760336 -2.43096 29.312 -10.2785 -11.9579 2.31918 28.3165 17.1319 3.34818 10.2618 4.66528 2.78507 2.3882 11.8446 -0.100667 46.2478 -7.07327 -18.6822 -5.48004 0.378589 -1.3242e-009 8.75237e-006 -1.47526e-008 
37.0977 92.7009 -84.756 6.35249 6.4994 62.2097 11.8175 -26.419 0.551987 1.19424 19.9495 -17.2758 -30.4882 0.531833 2.12381 0.0462048 0.000530889 0.662642 -9.83683 12.002 -2.00121 6.38092 -4.00639 -3.38288 13.2807 9.28195 -10.3799 -16.497 -0.200649 4.5849 -50.2614 -9.42094 -27.1602 -6.73345 17.6449 -38.5858 -0.738723 10.9878 -60.5061 37.3901 0.532774 -2.96887 29.7891 -1.21222 -8.43686 2.0198 22.3883 25.9018 1.90478 10.1991 7.18957 7.75507 -3.49898 11.1386 -0.241141 62.6415 -10.0801 -12.2925 9.69907 1.73121 -1.3242e-009 8.75237e-006 -1.47526e-008 
42.2512 91.8194 -81.9512 6.01234 3.48733 55.9712 17.873 -24.7051 0.903013 -0.791344 27.7654 -12.9543 -34.943 -3.19974 1.27368 0.0462048 0.000530889 0.662642 -7.0533 12.865 -1.28445 6.97998 -2.9436 -2.46608 14.4651 7.79955 -9.32424 -18.7379 -0.436982 5.44128 -48.3883 -4.70958 -17.9477 -5.24674 18.0819 -32.11 0.788003 10.0106 -59.0442 38.6133 0.367214 -3.3577 27.3076 0.0878475 -2.93826 2.06549 22.4718 37.7436 0.853456 10.1325 10.0474 10.2996 -11.0532 6.60129 0.324423 73.178 -5.47964 -4.51593 11.1939 0.662098 -1.3242e-009 8.75237e-006 -1.47526e-008 
47.1897 92.4104 -78.5271 4.95612 2.05607 48.699 21.4778 -19.5767 5.75431 -0.788203 29.228 -10.6787 -32.8224 -6.72148 0.112156 0.0462048 0.000530889 0.662642 -6.184 12.7411 -0.504455 7.12569 -2.65718 -1.68996 16.644 7.11868 -8.45656 -20.3557 -0.693968 6.29389 -48.2623 -1.33786 -7.31251 -4.08036 18.516 -25.5313 0.75801 10.0198 -57.1675 39.2645 0.411718 -3.26607 26.4623 -0.761919 2.32672 2.63696 22.4847 52.3631 0.834542 10.1632 12.1127 11.1023 -18.8808 1.87814 1.83751 74.3185 7.59391 0.566696 4.73892 -0.108079 -1.3242e-009 8.75237e-006 -1.47526e-008 
51.9649 93.3531 -74.7669 3.92567 2.08827 41.0959 22.8991 -13.5491 10.8248 -0.696757 27.8269 -9.18767 -31.8455 -8.3814 -0.386684 0.0462048 0.000530889 0.662642 -5.31815 11.8402 0.224802 6.15723 -2.60418 -0.746358 18.4337 6.78492 -8.24398 -21.8241 -1.0698 7.4866 -49.1195 -3.56349 4.77832 -3.83822 18.3508 -22.6179 -0.797686 10.9293 -56.0575 39.2406 0.594049 -2.8675 27.6926 -2.0384 6.59047 2.97323 22.8557 67.6073 1.05194 10.217 13.2832 11.0594 -25.4697 -2.47312 2.42519 67.2747 19.2228 4.66673 0.0352283 -0.325972 -1.3242e-009 8.75237e-006 -1.47526e-008 
